<?xml version="1.0" encoding="UTF-8" standalone="no"?>
<!-- Created with Inkscape (http://www.inkscape.org/) -->

<svg
   width="200"
   height="200"
   viewBox="0 0 52.916667 52.916667"
   version="1.1"
   id="svg1"
   xmlns="http://www.w3.org/2000/svg"
   xmlns:svg="http://www.w3.org/2000/svg">
  <defs
     id="defs1" />
  <g
     id="layer1">
    <path
       style="fill:#005e24;fill-opacity:1;stroke-width:0.139582"
       d="M 6.7829481,26.167806 V 6.4867662 H 26.533778 46.284609 V 26.167806 45.848845 H 26.533778 6.7829481 Z M 36.684458,39.187907 c 0.501444,-0.222641 0.597122,-0.625029 0.597122,-2.511296 0,-1.239259 -0.04585,-1.610928 -0.220253,-1.785562 -0.378067,-0.378562 -1.826863,-0.488551 -7.831693,-0.594562 l -5.818637,-0.102725 0.978661,-1.186447 c 2.122724,-2.573414 2.555651,-3.358642 2.266788,-4.11141 -0.227661,-0.593273 -1.97846,-0.900107 -4.042949,-0.708543 l -1.104666,0.102504 -0.653664,0.718639 c -0.359516,0.39525 -1.631455,1.906938 -2.826532,3.359303 l -2.172867,2.640665 v 1.58617 c 0,1.675595 0.174708,2.395804 0.649935,2.679265 0.381552,0.227587 19.657504,0.145433 20.178755,-0.086 z m -2.15962,-18.399657 2.826533,-3.408405 v -1.598952 c 0,-0.879424 -0.05892,-1.753913 -0.130925,-1.943312 -0.269828,-0.709702 -0.4315,-0.720677 -10.616877,-0.720677 -8.512179,0 -9.471504,0.02256 -9.936893,0.233673 -0.635697,0.28837 -0.726819,0.65872 -0.647564,2.63193 0.069,1.717988 0.203791,1.903339 1.522755,2.093986 0.492891,0.07125 3.424341,0.130798 6.514333,0.132342 3.089993,0.0015 5.61817,0.03541 5.61817,0.07527 0,0.03985 -0.635764,0.836054 -1.412809,1.769335 -1.671771,2.00791 -1.935941,2.414673 -1.936633,2.981995 -0.0012,0.980609 0.478047,1.142311 3.419232,1.153674 l 1.954146,0.0075 z"
       id="path2" />
  </g>
</svg>
