<?xml version="1.0" encoding="UTF-8"?>
<svg xmlns="http://www.w3.org/2000/svg" xmlns:xlink="http://www.w3.org/1999/xlink" width="116px" height="37px" viewBox="0 0 115 37" version="1.1">
<g id="surface1">
<path style=" stroke:none;fill-rule:nonzero;fill:rgb(0%,0%,0%);fill-opacity:1;" d="M 0 18.480469 L 0 0 L 36.722656 0 L 36.722656 36.960938 L 0 36.960938 Z M 27.867188 30.441406 C 28.1875 30.148438 28.234375 29.914062 28.234375 28.511719 C 28.234375 26.039062 28.851562 26.253906 21.488281 26.152344 L 15.234375 26.066406 L 16.882812 24.027344 C 18.6875 21.800781 18.847656 21.367188 18.078125 20.761719 C 17.679688 20.445312 17.378906 20.398438 15.757812 20.398438 C 14.234375 20.398438 13.828125 20.453125 13.535156 20.703125 C 13.339844 20.871094 12.125 22.304688 10.839844 23.886719 L 8.496094 26.761719 L 8.492188 28.433594 C 8.488281 30.160156 8.59375 30.449219 9.351562 30.738281 C 9.496094 30.792969 13.640625 30.820312 18.558594 30.804688 C 27.089844 30.773438 27.519531 30.757812 27.867188 30.441406 Z M 25.632812 13.421875 L 28.234375 10.277344 L 28.234375 8.625 C 28.234375 6.035156 29.238281 6.277344 18.445312 6.277344 C 7.660156 6.277344 8.660156 6.039062 8.660156 8.617188 C 8.660156 11.136719 8.214844 10.984375 15.539062 10.984375 L 21.5 10.984375 L 20.226562 12.507812 C 18.363281 14.742188 18.1875 14.996094 18.1875 15.484375 C 18.1875 16.417969 18.554688 16.5625 20.898438 16.5625 L 23.035156 16.5625 Z M 68.300781 33.921875 C 66.722656 33.425781 65.417969 32.21875 64.632812 30.53125 C 64.21875 29.644531 64.175781 29.355469 64.175781 27.460938 C 64.175781 25.480469 64.203125 25.304688 64.710938 24.234375 C 65.386719 22.808594 66.4375 21.714844 67.699219 21.128906 C 69.027344 20.511719 71.535156 20.464844 72.769531 21.035156 C 74.285156 21.734375 75.417969 23.09375 75.765625 24.625 L 75.875 25.105469 L 74.503906 25.105469 C 73.144531 25.105469 73.136719 25.101562 72.921875 24.578125 C 72.441406 23.414062 71.234375 22.863281 69.675781 23.097656 C 68.058594 23.34375 66.859375 25.199219 66.859375 27.460938 C 66.859375 30.332031 68.621094 32.136719 71.046875 31.746094 C 72.125 31.574219 72.710938 31.15625 73.105469 30.277344 C 73.683594 29.003906 73.632812 28.941406 72.054688 28.941406 L 70.671875 28.941406 L 70.671875 26.847656 L 76.039062 26.847656 L 76.039062 33.824219 L 75.085938 33.824219 C 74.261719 33.824219 74.132812 33.777344 74.132812 33.488281 C 74.132812 32.644531 73.953125 32.582031 73.25 33.1875 C 72.882812 33.507812 72.277344 33.859375 71.90625 33.96875 C 71.03125 34.234375 69.214844 34.207031 68.300781 33.921875 Z M 45.902344 27.382812 L 45.902344 20.921875 L 49.085938 20.921875 C 51.78125 20.921875 52.445312 20.976562 53.390625 21.269531 C 55.539062 21.9375 56.863281 23.679688 57.144531 26.203125 C 57.511719 29.511719 56.417969 32.132812 54.167969 33.34375 C 53.484375 33.710938 53.1875 33.738281 49.667969 33.792969 L 45.902344 33.847656 Z M 52.585938 31.226562 C 53.90625 30.621094 54.496094 29.195312 54.351562 26.949219 C 54.246094 25.289062 53.683594 24.253906 52.605469 23.726562 C 52.007812 23.4375 51.523438 23.363281 50.261719 23.363281 L 48.671875 23.363281 L 48.671875 31.558594 L 50.273438 31.554688 C 51.460938 31.550781 52.0625 31.464844 52.585938 31.226562 Z M 59.238281 27.371094 L 59.238281 20.921875 L 62.007812 20.921875 L 62.007812 33.824219 L 59.238281 33.824219 Z M 78.292969 27.371094 L 78.292969 20.921875 L 81.234375 20.921875 L 81.234375 33.824219 L 78.292969 33.824219 Z M 86.605469 28.597656 L 86.605469 23.375 L 82.707031 23.273438 L 82.605469 20.921875 L 93.375 20.921875 L 93.273438 23.273438 L 91.324219 23.324219 L 89.378906 23.375 L 89.378906 33.824219 L 86.605469 33.824219 Z M 92.21875 33.527344 C 92.273438 33.355469 93.359375 30.46875 94.628906 27.109375 L 96.941406 21.007812 L 98.410156 20.957031 L 99.878906 20.910156 L 102.191406 27.148438 C 103.464844 30.578125 104.539062 33.484375 104.582031 33.605469 C 104.636719 33.769531 104.292969 33.824219 103.207031 33.824219 L 101.753906 33.824219 L 101.261719 32.425781 L 100.769531 31.023438 L 98.34375 31.074219 L 95.921875 31.121094 L 95.449219 32.429688 L 94.980469 33.734375 L 93.550781 33.785156 C 92.242188 33.832031 92.128906 33.8125 92.21875 33.527344 Z M 99.945312 28.8125 C 99.953125 28.570312 98.472656 24.234375 98.382812 24.234375 C 98.335938 24.238281 97.933594 25.296875 97.484375 26.589844 L 96.675781 28.941406 L 98.308594 28.941406 C 99.207031 28.941406 99.945312 28.882812 99.945312 28.8125 Z M 105.832031 27.371094 L 105.832031 20.921875 L 108.597656 20.921875 L 108.691406 31.46875 L 111.851562 31.515625 L 115.011719 31.566406 L 115.011719 33.824219 L 105.832031 33.824219 Z M 45.902344 14.984375 L 45.902344 13.753906 L 49.5625 9.363281 L 53.222656 4.96875 L 49.820312 4.921875 L 46.421875 4.875 L 46.421875 2.265625 L 57.332031 2.265625 L 57.332031 4.738281 L 53.738281 9.085938 C 51.761719 11.472656 50.117188 13.507812 50.085938 13.601562 C 50.050781 13.710938 51.417969 13.773438 53.855469 13.773438 L 57.679688 13.773438 L 57.679688 16.214844 L 45.902344 16.214844 Z M 59.410156 9.242188 L 59.410156 2.265625 L 69.804688 2.265625 L 69.804688 4.882812 L 62.527344 4.882812 L 62.527344 7.84375 L 69.285156 7.84375 L 69.285156 10.285156 L 62.527344 10.285156 L 62.527344 13.773438 L 69.976562 13.773438 L 69.976562 16.214844 L 59.410156 16.214844 Z M 72.054688 9.234375 L 72.054688 2.253906 L 73.644531 2.304688 L 75.238281 2.355469 L 78.105469 7.007812 L 80.976562 11.660156 L 81.023438 6.964844 L 81.070312 2.265625 L 83.835938 2.265625 L 83.835938 16.214844 L 80.796875 16.214844 L 75.085938 6.964844 L 75.039062 11.589844 L 74.996094 16.214844 L 72.054688 16.214844 Z M 86.605469 9.242188 L 86.605469 2.265625 L 89.722656 2.265625 L 89.722656 16.214844 L 86.605469 16.214844 Z M 95.4375 10.546875 L 95.4375 4.882812 L 91.28125 4.882812 L 91.28125 2.265625 L 102.714844 2.265625 L 102.714844 4.882812 L 98.558594 4.882812 L 98.558594 16.214844 L 95.4375 16.214844 Z M 104.445312 9.242188 L 104.445312 2.265625 L 114.839844 2.265625 L 114.839844 4.882812 L 107.390625 4.882812 L 107.390625 7.84375 L 114.144531 7.84375 L 114.144531 10.285156 L 107.390625 10.285156 L 107.390625 13.773438 L 115.011719 13.773438 L 115.011719 16.214844 L 104.445312 16.214844 Z M 104.445312 9.242188 "/>
<path style=" stroke:none;fill-rule:nonzero;fill:rgb(0%,36.862746%,14.117648%);fill-opacity:1;" d="M 0.0117188 18.476562 L 0.0117188 0.113281 L 36.625 0.113281 L 36.625 36.835938 L 0.0117188 36.835938 Z M 27.726562 30.621094 C 28.191406 30.414062 28.28125 30.039062 28.28125 28.28125 C 28.28125 27.125 28.238281 26.777344 28.074219 26.613281 C 27.726562 26.261719 26.382812 26.15625 20.816406 26.058594 L 15.425781 25.964844 L 16.332031 24.855469 C 18.296875 22.457031 18.699219 21.722656 18.433594 21.019531 C 18.222656 20.46875 16.597656 20.179688 14.683594 20.359375 L 13.660156 20.453125 L 13.054688 21.125 C 12.722656 21.496094 11.542969 22.90625 10.433594 24.257812 L 8.421875 26.722656 L 8.421875 28.203125 C 8.421875 29.765625 8.582031 30.4375 9.023438 30.703125 C 9.378906 30.914062 27.242188 30.839844 27.726562 30.621094 Z M 25.726562 13.457031 L 28.34375 10.277344 L 28.34375 8.785156 C 28.34375 7.964844 28.289062 7.148438 28.222656 6.972656 C 27.972656 6.308594 27.824219 6.300781 18.382812 6.300781 C 10.492188 6.300781 9.605469 6.320312 9.171875 6.515625 C 8.582031 6.785156 8.5 7.132812 8.574219 8.972656 C 8.636719 10.574219 8.761719 10.75 9.984375 10.925781 C 10.441406 10.992188 13.15625 11.046875 16.023438 11.050781 C 18.886719 11.050781 21.230469 11.082031 21.230469 11.121094 C 21.230469 11.15625 20.640625 11.898438 19.917969 12.769531 C 18.371094 14.644531 18.125 15.023438 18.125 15.554688 C 18.125 16.46875 18.566406 16.617188 21.292969 16.628906 L 23.105469 16.636719 Z M 25.726562 13.457031 "/>
</g>
</svg>
