<?xml version="1.0" encoding="UTF-8" standalone="no"?>
<!-- Created with Inkscape (http://www.inkscape.org/) -->

<svg
   version="1.1"
   id="svg1"
   width="1118.8795"
   height="355.31982"
   viewBox="0 0 1118.8795 355.31982"
   xmlns="http://www.w3.org/2000/svg"
   xmlns:svg="http://www.w3.org/2000/svg">
  <defs
     id="defs1" />
  <g
     id="g1"
     transform="translate(-15.119993,-67.409974)">
    <path
       style="display:none;fill:#000000;stroke-width:1.68693"
       d="M 15.004814,245.12433 V 66.310027 H 193.81912 372.63342 V 245.12433 423.93864 H 193.81912 15.004814 Z M 286.42415,360.83914 c 3.11592,-2.82076 3.54983,-5.1011 3.54983,-18.65551 0,-23.93209 6.01508,-21.84146 -65.69867,-22.83449 l -60.91286,-0.84346 16.0718,-19.70848 c 17.57952,-21.55736 19.11417,-25.73094 11.62698,-31.62037 -3.87088,-3.04484 -6.78739,-3.49629 -22.58663,-3.49629 -14.82338,0 -18.78039,0.53998 -21.63288,2.95212 -1.92008,1.62367 -13.74777,15.47756 -26.28378,30.78642 l -22.792718,27.83431 -0.0504,16.18608 c -0.0521,16.69637 1.00379,19.50255 8.384148,22.28273 1.39171,0.52426 41.73553,0.8131 89.6529,0.64186 83.06758,-0.29685 87.28773,-0.46091 90.67235,-3.52492 z M 264.6531,196.1684 289.97398,165.76867 V 149.7779 c 0,-25.06875 9.76765,-22.73848 -95.3114,-22.73848 -105.052876,0 -95.311398,-2.31509 -95.311398,22.65108 0,24.38286 -4.349518,22.89596 66.975638,22.89596 h 58.08601 l -12.41454,14.76061 c -18.16768,21.60099 -19.8661,24.06083 -19.8661,28.77244 0,9.03194 3.57836,10.44862 26.39186,10.44862 h 20.80817 z m 415.54798,198.35109 c -15.38178,-4.8096 -28.08901,-16.46823 -35.74432,-32.79472 -4.02884,-8.59228 -4.44534,-11.37721 -4.44534,-29.72367 0,-19.14919 0.28235,-20.83568 5.2251,-31.20816 6.5732,-13.79401 16.81858,-24.37317 29.09479,-30.04263 12.93098,-5.97185 37.35185,-6.41762 49.38949,-0.90152 14.74252,6.75555 25.79473,19.91947 29.16693,34.73974 l 1.05556,4.63905 h -13.3229 c -13.23261,0 -13.3372,-0.0346 -15.43329,-5.09495 -4.67143,-11.2778 -16.41899,-16.60854 -31.58799,-14.33382 -15.75556,2.3627 -27.44032,20.33345 -27.44032,42.20229 0,27.79781 17.14134,45.2391 40.76216,41.47543 10.51111,-1.67479 16.22043,-5.71237 20.07153,-14.19438 5.60998,-12.35586 5.14673,-12.94217 -10.22587,-12.94217 h -13.49542 v -10.12157 -10.12156 h 26.14738 26.14737 v 33.73855 33.73855 h -9.2781 c -8.02161,0 -9.2781,-0.43822 -9.2781,-3.23588 0,-8.17885 -1.75653,-8.77594 -8.59569,-2.92188 -3.6086,3.08883 -9.5016,6.49707 -13.09556,7.57383 -8.51668,2.55166 -26.2102,2.31458 -35.11741,-0.47053 z M 462.04057,331.27558 v -62.53426 h 31.03046 c 26.23837,0 32.71308,0.51971 41.92593,3.36527 20.91048,6.45858 33.82231,23.33138 36.54381,47.75433 3.56638,32.00503 -7.07389,57.34953 -28.99422,69.06256 -6.65862,3.558 -9.52452,3.84231 -43.8153,4.34668 l -36.69068,0.53969 z m 65.1136,37.15399 c 12.85334,-5.83729 18.58056,-19.62796 17.18464,-41.37923 -1.03044,-16.05645 -6.49582,-26.06302 -17.01683,-31.15615 -5.79029,-2.80304 -10.51527,-3.53589 -22.79735,-3.53589 h -15.49322 v 39.6428 39.64279 l 15.60408,-0.0371 c 11.55453,-0.0275 17.39855,-0.852 22.51868,-3.17728 z m 64.77981,-37.27194 v -62.41631 h 13.49542 13.49542 v 62.41631 62.41632 H 605.4294 591.93398 Z m 185.56202,0 v -62.41631 h 14.33888 14.33889 v 62.41631 62.41632 H 791.83488 777.496 Z m 80.97252,11.86374 V 292.4688 l -18.97794,-0.47698 -18.97793,-0.47698 -0.49881,-11.38676 -0.49881,-11.38676 h 52.4489 52.44891 l -0.49881,11.38676 -0.49881,11.38676 -18.97793,0.47698 -18.97794,0.47698 v 50.55257 50.55258 h -13.49542 -13.49541 z m 54.67596,47.67088 c 0.5315,-1.6624 11.09661,-29.59166 23.47802,-62.06501 l 22.51165,-59.04246 14.29422,-0.48275 14.29421,-0.48274 22.53742,60.36867 c 12.3956,33.20276 22.8687,61.31756 23.2737,62.47733 0.5508,1.57766 -2.821,2.10866 -13.3903,2.10866 h -14.1266 l -4.8111,-13.54051 -4.8111,-13.54051 -23.60499,0.46682 -23.60502,0.46682 -4.57073,12.65196 -4.57073,12.65195 -13.9325,0.49216 c -12.74489,0.45019 -13.85013,0.2345 -12.96615,-2.53039 z m 75.25624,-45.61747 c 0.071,-2.31566 -14.35479,-44.28208 -15.21684,-44.26764 -0.46627,0.008 -4.40317,10.2559 -8.74866,22.77352 l -7.90087,22.75932 h 15.91378 c 8.75259,0 15.93126,-0.56934 15.95259,-1.2652 z m 57.31678,-13.91715 v -62.41631 h 13.4707 13.4706 l 0.4465,51.02955 0.4465,51.02956 30.7864,0.45979 30.7864,0.45978 v 10.92698 10.92697 h -44.7036 -44.7035 z M 462.04057,211.29358 v -11.9007 l 35.65848,-42.50271 35.65846,-42.50271 -33.12807,-0.45739 -33.12808,-0.4574 V 100.85638 88.240087 h 53.13821 53.13821 v 11.961663 11.96167 l -35.00374,42.04455 c -19.25206,23.12452 -35.25678,42.79264 -35.56605,43.70696 -0.3581,1.05866 12.9664,1.66236 36.69067,1.66236 h 37.25298 v 11.8085 11.80849 h -57.35553 -57.35554 z m 131.58034,-55.5764 V 88.240087 h 50.60782 50.60783 V 100.89204 113.544 h -35.42548 -35.42547 v 14.33888 14.33888 h 32.89508 32.89508 v 11.80849 11.8085 h -32.89508 -32.89508 v 16.86927 16.86927 h 36.26893 36.26894 v 11.8085 11.80849 H 645.0722 593.62091 Z m 123.1457,-0.0633 V 88.113487 l 15.49089,0.48503 15.4909,0.48504 27.94748,45.021603 27.94749,45.02159 0.44885,-45.44333 0.44884,-45.443373 h 13.46831 13.46831 v 67.477093 67.4771 H 816.68665 801.8956 l -27.80387,-44.75501 -27.80389,-44.75501 -0.44928,44.75501 -0.44929,44.75501 h -14.31132 -14.31134 z m 141.70191,0.0633 V 88.240087 h 15.18234 15.18235 v 67.477093 67.4771 h -15.18235 -15.18234 z m 86.03329,12.65196 V 113.544 H 924.25868 904.01556 V 100.89204 88.240087 h 55.6686 55.66864 V 100.89204 113.544 h -20.24316 -20.24313 v 54.82514 54.82514 H 959.68416 944.50181 Z M 1032.222,155.71718 V 88.240087 h 50.6079 50.6078 V 100.89204 113.544 h -36.269 -36.2689 v 14.33888 14.33888 h 32.8951 32.8951 v 11.80849 11.8085 h -32.8951 -32.8951 v 16.86927 16.86927 h 37.1124 37.1124 v 11.8085 11.80849 h -51.4513 -51.4513 z"
       id="path1" />
    <path
       style="fill:#005e24;fill-opacity:1;stroke-width:1.26"
       d="M 15.119993,245.06989 V 67.40997 H 193.40991 371.69984 V 245.06989 422.72981 H 193.40991 15.119993 Z M 285.03968,362.6018 c 4.52651,-2.00977 5.39019,-5.64211 5.39019,-22.66936 0,-11.18674 -0.41385,-14.54178 -1.98821,-16.1182 -3.4128,-3.41726 -16.49102,-4.41013 -70.69637,-5.36708 l -52.52459,-0.9273 8.83433,-10.71 c 19.16174,-23.23011 23.06975,-30.31833 20.4622,-37.11353 -2.05509,-5.35545 -17.85947,-8.12523 -36.49553,-6.39599 l -9.97177,0.9253 -5.9006,6.48712 c -3.24534,3.56791 -14.72708,17.21385 -25.51499,30.32429 l -19.614383,23.83717 v 14.31829 c 0,15.12553 1.577081,21.62683 5.866943,24.18562 3.44425,2.05442 177.44747,1.31282 182.15278,-0.77633 z m -19.4948,-166.09294 25.51499,-30.76753 v -14.43367 c 0,-7.93852 -0.53183,-15.8325 -1.18185,-17.54219 -2.43573,-6.40646 -3.89513,-6.50553 -95.83811,-6.50553 -76.83908,0 -85.49887,0.20364 -89.69992,2.10936 -5.738407,2.6031 -6.560959,5.94624 -5.845531,23.75832 0.622892,15.50821 1.839611,17.18136 13.745851,18.90233 4.4493,0.64312 30.91138,1.1807 58.80461,1.19464 27.89324,0.0139 50.71498,0.31968 50.71498,0.67943 0,0.35975 -5.73901,7.54703 -12.75336,15.97172 -15.09101,18.12532 -17.47566,21.79715 -17.48191,26.91834 -0.0108,8.85192 4.31531,10.3116 30.86527,10.41417 l 17.63999,0.0681 z"
       id="path2" />
    <path
       style="fill:#ffffff;fill-opacity:1;stroke-width:1.26"
       d="m 592.19974,330.74985 v -61.73997 h 13.22999 13.23 v 61.73997 61.73998 h -13.23 -13.22999 z"
       id="path3" />
    <path
       style="fill:#ffffff;fill-opacity:1;stroke-width:1.26"
       d="m 462.4198,330.98243 v -62.33246 l 31.81498,0.64377 c 29.95064,0.60604 32.35321,0.83171 40.99975,3.85099 20.67712,7.22026 32.16637,22.55028 35.54379,47.42583 4.07369,30.0038 -8.11114,57.73255 -30.03262,68.34456 -4.90525,2.37458 -8.25701,2.7944 -25.29521,3.1683 -10.80239,0.23705 -27.15346,0.61111 -36.3357,0.83124 l -16.69499,0.40023 z m 66.81823,36.74976 c 4.92388,-2.78182 7.62537,-5.42889 10.19393,-9.98859 8.71814,-15.47644 7.17706,-43.93354 -3.00735,-55.53295 -6.93328,-7.89656 -12.07434,-9.60717 -30.84983,-10.26477 l -16.695,-0.58474 v 40.64871 40.64872 l 16.8295,-0.57078 c 15.85548,-0.53774 17.21722,-0.78982 23.52875,-4.3556 z"
       id="path4" />
    <path
       style="fill:#ffffff;fill-opacity:1;stroke-width:1.26"
       d="m 462.4198,211.28707 v -11.10283 l 35.88011,-42.76214 35.88012,-42.76215 -16.66512,-0.79615 c -9.16582,-0.43788 -24.17788,-0.86313 -33.36012,-0.945 l -16.695,-0.14885 V 100.79996 88.829961 h 52.91998 52.91998 v 11.037637 11.037642 l -30.31238,36.52734 c -37.17075,44.79189 -40.67877,49.30031 -39.65267,50.96057 0.53505,0.86574 13.08838,1.31676 36.64942,1.31676 h 35.83563 v 11.34 11.33999 H 519.11977 462.4198 Z"
       id="path5" />
    <path
       style="fill:#ffffff;fill-opacity:1;stroke-width:1.26"
       d="M 594.71974,155.60993 V 88.829961 h 49.76998 49.76997 v 11.969999 11.96999 h -35.27998 -35.27999 v 15.11999 15.12 h 32.75999 32.75999 v 11.33999 11.34 h -32.75999 -32.75999 v 17.00999 17.00999 h 35.90999 35.90998 v 11.34 11.33999 h -50.39997 -50.39998 z"
       id="path6" />
    <path
       style="fill:#ffffff;fill-opacity:1;stroke-width:1.26"
       d="M 716.93968,155.43697 V 88.484044 l 15.15103,0.623993 c 8.33307,0.343196 15.31792,0.846277 15.5219,1.117958 0.20398,0.271681 12.80576,20.565585 28.00395,45.097575 l 27.63309,44.6036 0.77923,-14.36362 c 0.42858,-7.89999 0.85383,-28.39686 0.945,-45.5486 l 0.16576,-31.184989 h 12.6 12.59999 v 66.779969 66.77997 l -14.17499,-0.0511 -14.17499,-0.0511 -27.71999,-44.87002 -27.71999,-44.87001 -0.7915,21.92611 c -0.43532,12.05936 -0.86057,32.27386 -0.945,44.9211 l -0.1535,22.99499 h -13.85999 -13.86 z"
       id="path7" />
    <path
       style="fill:#ffffff;fill-opacity:1;stroke-width:1.26"
       d="m 685.4397,394.88641 c -16.20713,-3.16516 -31.77992,-16.18488 -39.9592,-33.40812 l -4.60878,-9.70478 v -19.90528 -19.90528 l 5.39497,-10.88752 c 6.37981,-12.87498 16.46264,-23.71597 26.72904,-28.73884 14.46783,-7.07846 38.43982,-7.41115 52.33982,-0.72639 11.74018,5.64605 24.06639,20.79601 26.39569,32.44254 l 0.82248,4.11241 -12.3183,-0.36264 c -10.80259,-0.31802 -12.48941,-0.67272 -13.70886,-2.88264 -6.51326,-11.80354 -13.04996,-15.67968 -26.51406,-15.72233 -18.45357,-0.0584 -29.93497,11.52415 -33.63555,33.93199 -3.41011,20.64903 4.62265,40.35064 19.69275,48.29954 7.07299,3.73073 21.60957,3.71858 29.9011,-0.025 6.61589,-2.98703 12.91365,-11.31023 14.34963,-18.96466 1.09911,-5.85877 -0.36267,-6.52715 -14.32575,-6.55027 l -11.65499,-0.0193 v -9.45 -9.44999 h 25.19999 25.19999 v 32.81755 32.81756 l -8.505,-0.37257 c -8.42172,-0.36892 -8.50903,-0.40958 -8.91695,-4.15257 -0.68829,-6.31564 -2.13905,-6.34471 -11.17296,-0.22387 -4.71629,3.19549 -11.12658,6.38199 -14.24507,7.08111 -6.73983,1.51099 -18.57963,1.48831 -26.45999,-0.0507 z"
       id="path8" />
    <path
       style="fill:#ffffff;fill-opacity:1;stroke-width:1.26"
       d="m 778.67966,330.74985 v -61.73997 h 13.22999 13.22999 v 61.73997 61.73998 h -13.22999 -13.22999 z"
       id="path9" />
    <path
       style="fill:#ffffff;fill-opacity:1;stroke-width:1.26"
       d="m 859.31962,342.20799 v -50.28183 l -18.16697,-0.43314 c -9.99183,-0.23823 -18.59055,-0.85762 -19.10826,-1.37642 -0.51771,-0.5188 -1.20392,-5.48004 -1.52491,-11.02499 l -0.58363,-10.08173 h 51.82187 51.82187 l -0.0193,9.135 c -0.0106,5.02424 -0.55636,9.98549 -1.21277,11.02499 -0.94945,1.50356 -4.93876,1.97857 -19.5107,2.32315 l -18.31722,0.43314 v 50.28183 50.28184 h -12.59999 -12.6 z"
       id="path10" />
    <path
       style="fill:#ffffff;fill-opacity:1;stroke-width:1.26"
       d="M 859.31962,155.60993 V 88.829961 h 14.48999 14.49 v 66.779969 66.77997 h -14.49 -14.48999 z"
       id="path11" />
    <path
       style="fill:#ffffff;fill-opacity:1;stroke-width:1.26"
       d="M 944.99958,167.57993 V 112.76995 H 924.83959 904.6796 V 100.79996 88.829961 h 54.80998 54.81002 v 11.969999 11.96999 h -20.16004 -20.15999 v 54.80998 54.80997 h -14.48999 -14.49 z"
       id="path12" />
    <path
       style="fill:#ffffff;fill-opacity:1;stroke-width:1.26"
       d="m 913.88997,390.76994 c 0.36299,-0.94595 10.71765,-28.30368 23.01034,-60.79498 12.2927,-32.49129 22.40411,-59.14636 22.46981,-59.23347 0.0657,-0.0871 6.35645,-0.5413 13.97945,-1.0093 l 13.85999,-0.85091 20.72514,55.81928 c 11.3988,30.7006 21.7515,58.53175 23.006,61.84701 l 2.2811,6.02774 -13.5561,-0.35774 -13.5561,-0.35774 -4.41,-12.6 -4.41004,-12.59999 -17.65529,-0.34777 c -9.71041,-0.19127 -20.76691,0.0994 -24.56999,0.64598 l -6.9147,0.99375 -4.3331,12.26901 -4.33309,12.26902 h -13.1267 c -10.5735,0 -12.99833,-0.33453 -12.46672,-1.71989 z M 988.517,345.61317 c 0.97638,-0.97722 -13.02644,-43.53946 -14.65557,-44.54632 -0.55848,-0.34516 -1.68191,0.61779 -2.49651,2.13988 -1.83862,3.43549 -15.02534,41.05318 -15.02534,42.86271 0,1.48415 30.67323,1.04921 32.17742,-0.45627 z"
       id="path13" />
    <path
       style="fill:#ffffff;fill-opacity:1;stroke-width:1.26"
       d="M 1033.1995,155.60993 V 88.829961 h 49.77 49.77 v 11.969999 11.96999 h -36.54 -36.54 v 15.11999 15.12 h 33.39 33.39 v 11.33999 11.34 h -33.39 -33.39 v 17.00999 17.00999 h 37.17 37.17 v 11.34 11.33999 h -50.4 -50.4 z"
       id="path14" />
    <path
       style="fill:#ffffff;fill-opacity:1;stroke-width:1.26"
       d="m 1045.7995,330.74985 v -61.73997 h 13.1758 13.1757 l 0.3693,50.29632 c 0.2031,27.66298 0.7081,50.63457 1.1222,51.04798 0.4142,0.4134 14.1639,1.11763 30.555,1.56495 l 29.802,0.81331 v 9.87869 9.8787 h -44.1 -44.1 z"
       id="path15" />
    <path
       style="fill:#ffffff;fill-opacity:1;stroke-width:1.26"
       d="m 103.60844,362.71318 c -3.32311,-1.43384 -5.050476,-7.84954 -5.915635,-21.97158 l -0.893107,-14.57825 22.029032,-26.37173 c 12.11597,-14.50446 23.72763,-28.35624 25.80368,-30.78174 l 3.77464,-4.41 h 18.72143 c 15.79034,0 19.38627,0.36255 22.96783,2.31565 3.99725,2.17978 4.21071,2.63221 3.63824,7.71118 -0.69831,6.19539 -4.46796,12.15127 -18.99768,30.01549 -5.51225,6.77728 -9.80283,12.52377 -9.53461,12.76997 0.26822,0.24621 25.15216,1.08187 55.29764,1.85703 55.19584,1.41929 64.83794,2.28801 67.72497,6.10175 1.97393,2.60754 2.14261,26.05463 0.22695,31.54985 -0.74142,2.12685 -2.30067,4.31832 -3.46499,4.86993 -2.35835,1.11729 -178.84655,2.01487 -181.37839,0.92245 z"
       id="path16" />
    <path
       style="fill:#ffffff;fill-opacity:1;stroke-width:1.26"
       d="m 197.81991,224.52378 c -3.47702,-1.18572 -4.49745,-2.26914 -4.82338,-5.12112 -0.73827,-6.46013 0.8974,-9.39886 14.93231,-26.82816 7.60708,-9.44688 13.83106,-17.59121 13.83106,-18.0985 0,-0.5073 -23.38874,-1.29327 -51.97497,-1.74661 -57.83123,-0.91712 -62.73845,-1.24959 -66.78772,-4.525 -2.56899,-2.07803 -2.86643,-3.57167 -3.256136,-16.35119 -0.235885,-7.73533 -0.10773,-15.34382 0.284786,-16.90774 1.60025,-6.37588 1.88327,-6.39818 86.2257,-6.79431 80.60269,-0.37856 99.04036,0.35544 101.74213,4.05034 0.8167,1.11691 1.88938,8.80747 2.38374,17.09015 l 0.89882,15.05941 -25.62318,30.89465 -25.62318,30.89466 -18.89999,-0.0563 c -11.1861,-0.0334 -20.6999,-0.67014 -23.30999,-1.56023 z"
       id="path17" />
  </g>
</svg>
