<?xml version="1.0" encoding="UTF-8"?>
<svg xmlns="http://www.w3.org/2000/svg" xmlns:xlink="http://www.w3.org/1999/xlink" width="117px" height="37px" viewBox="0 0 116 37" version="1.1">
<g id="surface1">
<path style=" stroke:none;fill-rule:nonzero;fill:rgb(0%,36.862746%,14.117648%);fill-opacity:1;" d="M 0 18.515625 L 0 0 L 36.964844 0 L 36.964844 37.035156 L 0 37.035156 Z M 27.980469 30.765625 C 28.449219 30.558594 28.539062 30.179688 28.539062 28.402344 C 28.539062 27.238281 28.496094 26.886719 28.332031 26.722656 C 27.980469 26.367188 26.625 26.265625 21.003906 26.164062 L 15.558594 26.066406 L 16.476562 24.953125 C 18.460938 22.53125 18.867188 21.792969 18.597656 21.082031 C 18.382812 20.523438 16.746094 20.238281 14.8125 20.417969 L 13.78125 20.511719 L 13.167969 21.1875 C 12.832031 21.5625 11.640625 22.984375 10.523438 24.351562 L 8.488281 26.835938 L 8.488281 28.328125 C 8.488281 29.902344 8.652344 30.582031 9.097656 30.847656 C 9.457031 31.0625 27.492188 30.984375 27.980469 30.765625 Z M 25.960938 13.457031 L 28.605469 10.25 L 28.605469 8.746094 C 28.605469 7.917969 28.550781 7.09375 28.484375 6.914062 C 28.230469 6.25 28.078125 6.238281 18.546875 6.238281 C 10.582031 6.238281 9.683594 6.257812 9.25 6.457031 C 8.652344 6.730469 8.570312 7.078125 8.644531 8.933594 C 8.707031 10.550781 8.832031 10.726562 10.066406 10.902344 C 10.527344 10.972656 13.273438 11.027344 16.164062 11.027344 C 19.054688 11.03125 21.421875 11.0625 21.421875 11.097656 C 21.421875 11.136719 20.828125 11.886719 20.097656 12.765625 C 18.535156 14.652344 18.289062 15.035156 18.285156 15.570312 C 18.285156 16.492188 18.734375 16.644531 21.488281 16.65625 L 23.316406 16.664062 Z M 25.960938 13.457031 "/>
<path style=" stroke:none;fill-rule:nonzero;fill:rgb(100%,100%,100%);fill-opacity:1;" d="M 59.824219 27.445312 L 59.824219 21.011719 L 62.566406 21.011719 L 62.566406 33.882812 L 59.824219 33.882812 Z M 59.824219 27.445312 "/>
<path style=" stroke:none;fill-rule:nonzero;fill:rgb(100%,100%,100%);fill-opacity:1;" d="M 46.367188 27.472656 L 46.367188 20.972656 L 49.667969 21.042969 C 52.773438 21.105469 53.019531 21.128906 53.917969 21.441406 C 56.0625 22.195312 57.25 23.792969 57.601562 26.386719 C 58.023438 29.511719 56.761719 32.402344 54.488281 33.507812 C 53.980469 33.757812 53.632812 33.800781 51.867188 33.839844 C 50.746094 33.863281 49.050781 33.902344 48.097656 33.925781 L 46.367188 33.96875 Z M 53.296875 31.300781 C 53.804688 31.011719 54.085938 30.734375 54.351562 30.261719 C 55.257812 28.648438 55.097656 25.679688 54.039062 24.472656 C 53.320312 23.648438 52.789062 23.472656 50.84375 23.402344 L 49.113281 23.339844 L 49.113281 31.816406 L 50.855469 31.753906 C 52.5 31.699219 52.640625 31.671875 53.296875 31.300781 Z M 53.296875 31.300781 "/>
<path style=" stroke:none;fill-rule:nonzero;fill:rgb(100%,100%,100%);fill-opacity:1;" d="M 46.367188 14.996094 L 46.367188 13.839844 L 50.089844 9.382812 L 53.808594 4.925781 L 52.082031 4.839844 C 51.128906 4.796875 49.574219 4.75 48.621094 4.742188 L 46.890625 4.726562 L 46.890625 2.234375 L 57.863281 2.234375 L 57.863281 4.535156 L 54.722656 8.339844 C 50.867188 13.007812 50.503906 13.480469 50.609375 13.652344 C 50.664062 13.742188 51.96875 13.789062 54.410156 13.789062 L 58.125 13.789062 L 58.125 16.152344 L 46.367188 16.152344 Z M 46.367188 14.996094 "/>
<path style=" stroke:none;fill-rule:nonzero;fill:rgb(100%,100%,100%);fill-opacity:1;" d="M 60.082031 9.191406 L 60.082031 2.234375 L 70.402344 2.234375 L 70.402344 4.726562 L 63.085938 4.726562 L 63.085938 7.878906 L 69.878906 7.878906 L 69.878906 10.242188 L 63.085938 10.242188 L 63.085938 13.789062 L 70.53125 13.789062 L 70.53125 16.152344 L 60.082031 16.152344 Z M 60.082031 9.191406 "/>
<path style=" stroke:none;fill-rule:nonzero;fill:rgb(100%,100%,100%);fill-opacity:1;" d="M 72.753906 9.175781 L 72.753906 2.195312 L 74.324219 2.261719 C 75.1875 2.296875 75.910156 2.351562 75.933594 2.378906 C 75.953125 2.40625 77.261719 4.519531 78.835938 7.078125 L 81.699219 11.726562 L 81.78125 10.230469 C 81.824219 9.40625 81.871094 7.269531 81.878906 5.484375 L 81.898438 2.234375 L 84.507812 2.234375 L 84.507812 16.152344 L 83.039062 16.148438 L 81.570312 16.140625 L 78.695312 11.464844 L 75.824219 6.789062 L 75.742188 9.074219 C 75.695312 10.332031 75.652344 12.4375 75.644531 13.757812 L 75.628906 16.152344 L 72.753906 16.152344 Z M 72.753906 9.175781 "/>
<path style=" stroke:none;fill-rule:nonzero;fill:rgb(100%,100%,100%);fill-opacity:1;" d="M 69.488281 34.132812 C 67.808594 33.800781 66.195312 32.445312 65.34375 30.648438 L 64.867188 29.636719 L 64.867188 25.488281 L 65.425781 24.355469 C 66.089844 23.011719 67.132812 21.882812 68.199219 21.359375 C 69.699219 20.621094 72.183594 20.585938 73.625 21.28125 C 74.839844 21.871094 76.117188 23.449219 76.359375 24.664062 L 76.445312 25.09375 L 75.167969 25.054688 C 74.046875 25.023438 73.875 24.984375 73.746094 24.753906 C 73.070312 23.523438 72.394531 23.121094 71 23.117188 C 69.085938 23.109375 67.894531 24.316406 67.511719 26.652344 C 67.160156 28.804688 67.992188 30.859375 69.554688 31.6875 C 70.285156 32.074219 71.792969 32.074219 72.652344 31.683594 C 73.339844 31.371094 73.992188 30.503906 74.140625 29.707031 C 74.253906 29.097656 74.101562 29.027344 72.65625 29.023438 L 71.445312 29.023438 L 71.445312 27.050781 L 76.671875 27.050781 L 76.671875 33.894531 L 75.789062 33.855469 C 74.917969 33.816406 74.90625 33.8125 74.867188 33.421875 C 74.792969 32.765625 74.644531 32.761719 73.707031 33.398438 C 73.21875 33.730469 72.554688 34.0625 72.230469 34.136719 C 71.53125 34.292969 70.304688 34.292969 69.488281 34.132812 Z M 69.488281 34.132812 "/>
<path style=" stroke:none;fill-rule:nonzero;fill:rgb(100%,100%,100%);fill-opacity:1;" d="M 79.152344 27.445312 L 79.152344 21.011719 L 81.898438 21.011719 L 81.898438 33.882812 L 79.152344 33.882812 Z M 79.152344 27.445312 "/>
<path style=" stroke:none;fill-rule:nonzero;fill:rgb(100%,100%,100%);fill-opacity:1;" d="M 87.511719 28.640625 L 87.511719 23.398438 L 85.628906 23.355469 C 84.59375 23.332031 83.703125 23.265625 83.648438 23.210938 C 83.59375 23.15625 83.523438 22.640625 83.492188 22.0625 L 83.429688 21.011719 L 94.175781 21.011719 L 94.171875 21.964844 C 94.171875 22.488281 94.113281 23.003906 94.046875 23.113281 C 93.949219 23.269531 93.535156 23.320312 92.023438 23.355469 L 90.125 23.398438 L 90.125 33.882812 L 87.511719 33.882812 Z M 87.511719 28.640625 "/>
<path style=" stroke:none;fill-rule:nonzero;fill:rgb(100%,100%,100%);fill-opacity:1;" d="M 87.511719 9.191406 L 87.511719 2.234375 L 90.515625 2.234375 L 90.515625 16.152344 L 87.511719 16.152344 Z M 87.511719 9.191406 "/>
<path style=" stroke:none;fill-rule:nonzero;fill:rgb(100%,100%,100%);fill-opacity:1;" d="M 96.394531 10.441406 L 96.394531 4.726562 L 92.214844 4.726562 L 92.214844 2.234375 L 103.578125 2.234375 L 103.578125 4.726562 L 99.398438 4.726562 L 99.398438 16.152344 L 96.394531 16.152344 Z M 96.394531 10.441406 "/>
<path style=" stroke:none;fill-rule:nonzero;fill:rgb(100%,100%,100%);fill-opacity:1;" d="M 93.171875 33.703125 C 93.207031 33.605469 94.28125 30.753906 95.554688 27.367188 C 96.828125 23.980469 97.878906 21.203125 97.882812 21.191406 C 97.890625 21.183594 98.542969 21.136719 99.332031 21.085938 L 100.769531 21 L 102.917969 26.816406 C 104.101562 30.015625 105.175781 32.917969 105.304688 33.261719 L 105.539062 33.890625 L 104.136719 33.851562 L 102.730469 33.816406 L 102.273438 32.503906 L 101.816406 31.1875 L 99.984375 31.152344 C 98.980469 31.132812 97.832031 31.164062 97.4375 31.21875 L 96.722656 31.324219 L 96.273438 32.601562 L 95.824219 33.882812 L 94.460938 33.882812 C 93.367188 33.882812 93.113281 33.847656 93.171875 33.703125 Z M 100.90625 28.996094 C 101.007812 28.894531 99.554688 24.457031 99.386719 24.351562 C 99.328125 24.316406 99.210938 24.417969 99.128906 24.574219 C 98.9375 24.933594 97.570312 28.855469 97.570312 29.042969 C 97.570312 29.199219 100.75 29.152344 100.90625 28.996094 Z M 100.90625 28.996094 "/>
<path style=" stroke:none;fill-rule:nonzero;fill:rgb(100%,100%,100%);fill-opacity:1;" d="M 105.539062 9.191406 L 105.539062 2.234375 L 115.855469 2.234375 L 115.855469 4.726562 L 108.28125 4.726562 L 108.28125 7.878906 L 115.203125 7.878906 L 115.203125 10.242188 L 108.28125 10.242188 L 108.28125 13.789062 L 115.988281 13.789062 L 115.988281 16.152344 L 105.539062 16.152344 Z M 105.539062 9.191406 "/>
<path style=" stroke:none;fill-rule:nonzero;fill:rgb(100%,100%,100%);fill-opacity:1;" d="M 106.84375 27.445312 L 106.84375 21.011719 L 109.574219 21.011719 L 109.613281 26.253906 C 109.636719 29.136719 109.6875 31.53125 109.730469 31.574219 C 109.773438 31.617188 111.199219 31.691406 112.898438 31.738281 L 115.988281 31.824219 L 115.988281 33.882812 L 106.84375 33.882812 Z M 106.84375 27.445312 "/>
<path style=" stroke:none;fill-rule:nonzero;fill:rgb(100%,100%,100%);fill-opacity:1;" d="M 9.171875 30.777344 C 8.828125 30.628906 8.648438 29.960938 8.558594 28.488281 L 8.46875 26.96875 L 10.75 24.21875 C 12.007812 22.707031 13.210938 21.265625 13.425781 21.011719 L 13.816406 20.550781 L 15.757812 20.550781 C 17.394531 20.550781 17.765625 20.589844 18.140625 20.792969 C 18.554688 21.019531 18.574219 21.066406 18.515625 21.597656 C 18.445312 22.242188 18.050781 22.863281 16.546875 24.726562 C 15.976562 25.433594 15.53125 26.03125 15.558594 26.054688 C 15.585938 26.082031 18.164062 26.167969 21.289062 26.25 C 27.011719 26.398438 28.011719 26.488281 28.3125 26.886719 C 28.515625 27.15625 28.535156 29.601562 28.335938 30.175781 C 28.257812 30.394531 28.097656 30.625 27.976562 30.683594 C 27.730469 30.796875 9.433594 30.890625 9.171875 30.777344 Z M 9.171875 30.777344 "/>
<path style=" stroke:none;fill-rule:nonzero;fill:rgb(100%,100%,100%);fill-opacity:1;" d="M 18.9375 16.375 C 18.578125 16.25 18.472656 16.140625 18.4375 15.839844 C 18.363281 15.167969 18.53125 14.863281 19.988281 13.046875 C 20.777344 12.0625 21.421875 11.210938 21.421875 11.160156 C 21.421875 11.105469 18.996094 11.023438 16.03125 10.976562 C 10.039062 10.882812 9.53125 10.847656 9.109375 10.503906 C 8.84375 10.289062 8.8125 10.132812 8.773438 8.800781 C 8.746094 7.996094 8.761719 7.203125 8.800781 7.039062 C 8.96875 6.375 8.996094 6.371094 17.738281 6.332031 C 26.097656 6.292969 28.007812 6.367188 28.289062 6.753906 C 28.371094 6.871094 28.484375 7.671875 28.535156 8.535156 L 28.628906 10.105469 L 23.316406 16.542969 L 21.355469 16.539062 C 20.195312 16.535156 19.210938 16.46875 18.9375 16.375 Z M 18.9375 16.375 "/>
</g>
</svg>
