<?xml version="1.0" encoding="UTF-8" standalone="no"?>
<!-- Created with Inkscape (http://www.inkscape.org/) -->

<svg
   version="1.1"
   id="svg1"
   width="1120.1198"
   height="357.6286"
   viewBox="0 0 1120.1198 357.6286"
   xmlns="http://www.w3.org/2000/svg"
   xmlns:svg="http://www.w3.org/2000/svg">
  <defs
     id="defs1" />
  <g
     id="g1"
     transform="translate(-15.004813,-66.310028)">
    <path
       style="fill:#000000;stroke-width:1.68693"
       d="M 15.004814,245.12433 V 66.310027 H 193.81912 372.63342 V 245.12433 423.93864 H 193.81912 15.004814 Z M 286.42415,360.83914 c 3.11592,-2.82076 3.54983,-5.1011 3.54983,-18.65551 0,-23.93209 6.01508,-21.84146 -65.69867,-22.83449 l -60.91286,-0.84346 16.0718,-19.70848 c 17.57952,-21.55736 19.11417,-25.73094 11.62698,-31.62037 -3.87088,-3.04484 -6.78739,-3.49629 -22.58663,-3.49629 -14.82338,0 -18.78039,0.53998 -21.63288,2.95212 -1.92008,1.62367 -13.74777,15.47756 -26.28378,30.78642 l -22.792718,27.83431 -0.0504,16.18608 c -0.0521,16.69637 1.00379,19.50255 8.384148,22.28273 1.39171,0.52426 41.73553,0.8131 89.6529,0.64186 83.06758,-0.29685 87.28773,-0.46091 90.67235,-3.52492 z M 264.6531,196.1684 289.97398,165.76867 V 149.7779 c 0,-25.06875 9.76765,-22.73848 -95.3114,-22.73848 -105.052876,0 -95.311398,-2.31509 -95.311398,22.65108 0,24.38286 -4.349518,22.89596 66.975638,22.89596 h 58.08601 l -12.41454,14.76061 c -18.16768,21.60099 -19.8661,24.06083 -19.8661,28.77244 0,9.03194 3.57836,10.44862 26.39186,10.44862 h 20.80817 z m 415.54798,198.35109 c -15.38178,-4.8096 -28.08901,-16.46823 -35.74432,-32.79472 -4.02884,-8.59228 -4.44534,-11.37721 -4.44534,-29.72367 0,-19.14919 0.28235,-20.83568 5.2251,-31.20816 6.5732,-13.79401 16.81858,-24.37317 29.09479,-30.04263 12.93098,-5.97185 37.35185,-6.41762 49.38949,-0.90152 14.74252,6.75555 25.79473,19.91947 29.16693,34.73974 l 1.05556,4.63905 h -13.3229 c -13.23261,0 -13.3372,-0.0346 -15.43329,-5.09495 -4.67143,-11.2778 -16.41899,-16.60854 -31.58799,-14.33382 -15.75556,2.3627 -27.44032,20.33345 -27.44032,42.20229 0,27.79781 17.14134,45.2391 40.76216,41.47543 10.51111,-1.67479 16.22043,-5.71237 20.07153,-14.19438 5.60998,-12.35586 5.14673,-12.94217 -10.22587,-12.94217 h -13.49542 v -10.12157 -10.12156 h 26.14738 26.14737 v 33.73855 33.73855 h -9.2781 c -8.02161,0 -9.2781,-0.43822 -9.2781,-3.23588 0,-8.17885 -1.75653,-8.77594 -8.59569,-2.92188 -3.6086,3.08883 -9.5016,6.49707 -13.09556,7.57383 -8.51668,2.55166 -26.2102,2.31458 -35.11741,-0.47053 z M 462.04057,331.27558 v -62.53426 h 31.03046 c 26.23837,0 32.71308,0.51971 41.92593,3.36527 20.91048,6.45858 33.82231,23.33138 36.54381,47.75433 3.56638,32.00503 -7.07389,57.34953 -28.99422,69.06256 -6.65862,3.558 -9.52452,3.84231 -43.8153,4.34668 l -36.69068,0.53969 z m 65.1136,37.15399 c 12.85334,-5.83729 18.58056,-19.62796 17.18464,-41.37923 -1.03044,-16.05645 -6.49582,-26.06302 -17.01683,-31.15615 -5.79029,-2.80304 -10.51527,-3.53589 -22.79735,-3.53589 h -15.49322 v 39.6428 39.64279 l 15.60408,-0.0371 c 11.55453,-0.0275 17.39855,-0.852 22.51868,-3.17728 z m 64.77981,-37.27194 v -62.41631 h 13.49542 13.49542 v 62.41631 62.41632 H 605.4294 591.93398 Z m 185.56202,0 v -62.41631 h 14.33888 14.33889 v 62.41631 62.41632 H 791.83488 777.496 Z m 80.97252,11.86374 V 292.4688 l -18.97794,-0.47698 -18.97793,-0.47698 -0.49881,-11.38676 -0.49881,-11.38676 h 52.4489 52.44891 l -0.49881,11.38676 -0.49881,11.38676 -18.97793,0.47698 -18.97794,0.47698 v 50.55257 50.55258 h -13.49542 -13.49541 z m 54.67596,47.67088 c 0.5315,-1.6624 11.09661,-29.59166 23.47802,-62.06501 l 22.51165,-59.04246 14.29422,-0.48275 14.29421,-0.48274 22.53742,60.36867 c 12.3956,33.20276 22.8687,61.31756 23.2737,62.47733 0.5508,1.57766 -2.821,2.10866 -13.3903,2.10866 h -14.1266 l -4.8111,-13.54051 -4.8111,-13.54051 -23.60499,0.46682 -23.60502,0.46682 -4.57073,12.65196 -4.57073,12.65195 -13.9325,0.49216 c -12.74489,0.45019 -13.85013,0.2345 -12.96615,-2.53039 z m 75.25624,-45.61747 c 0.071,-2.31566 -14.35479,-44.28208 -15.21684,-44.26764 -0.46627,0.008 -4.40317,10.2559 -8.74866,22.77352 l -7.90087,22.75932 h 15.91378 c 8.75259,0 15.93126,-0.56934 15.95259,-1.2652 z m 57.31678,-13.91715 v -62.41631 h 13.4707 13.4706 l 0.4465,51.02955 0.4465,51.02956 30.7864,0.45979 30.7864,0.45978 v 10.92698 10.92697 h -44.7036 -44.7035 z M 462.04057,211.29358 v -11.9007 l 35.65848,-42.50271 35.65846,-42.50271 -33.12807,-0.45739 -33.12808,-0.4574 V 100.85638 88.240087 h 53.13821 53.13821 v 11.961663 11.96167 l -35.00374,42.04455 c -19.25206,23.12452 -35.25678,42.79264 -35.56605,43.70696 -0.3581,1.05866 12.9664,1.66236 36.69067,1.66236 h 37.25298 v 11.8085 11.80849 h -57.35553 -57.35554 z m 131.58034,-55.5764 V 88.240087 h 50.60782 50.60783 V 100.89204 113.544 h -35.42548 -35.42547 v 14.33888 14.33888 h 32.89508 32.89508 v 11.80849 11.8085 h -32.89508 -32.89508 v 16.86927 16.86927 h 36.26893 36.26894 v 11.8085 11.80849 H 645.0722 593.62091 Z m 123.1457,-0.0633 V 88.113487 l 15.49089,0.48503 15.4909,0.48504 27.94748,45.021603 27.94749,45.02159 0.44885,-45.44333 0.44884,-45.443373 h 13.46831 13.46831 v 67.477093 67.4771 H 816.68665 801.8956 l -27.80387,-44.75501 -27.80389,-44.75501 -0.44928,44.75501 -0.44929,44.75501 h -14.31132 -14.31134 z m 141.70191,0.0633 V 88.240087 h 15.18234 15.18235 v 67.477093 67.4771 h -15.18235 -15.18234 z m 86.03329,12.65196 V 113.544 H 924.25868 904.01556 V 100.89204 88.240087 h 55.6686 55.66864 V 100.89204 113.544 h -20.24316 -20.24313 v 54.82514 54.82514 H 959.68416 944.50181 Z M 1032.222,155.71718 V 88.240087 h 50.6079 50.6078 V 100.89204 113.544 h -36.269 -36.2689 v 14.33888 14.33888 h 32.8951 32.8951 v 11.80849 11.8085 h -32.8951 -32.8951 v 16.86927 16.86927 h 37.1124 37.1124 v 11.8085 11.80849 h -51.4513 -51.4513 z"
       id="path1" />
    <path
       style="fill:#005e24;fill-opacity:1;stroke-width:1.26"
       d="M 15.119993,245.06989 V 67.40997 H 193.40991 371.69984 V 245.06989 422.72981 H 193.40991 15.119993 Z M 285.03968,362.6018 c 4.52651,-2.00977 5.39019,-5.64211 5.39019,-22.66936 0,-11.18674 -0.41385,-14.54178 -1.98821,-16.1182 -3.4128,-3.41726 -16.49102,-4.41013 -70.69637,-5.36708 l -52.52459,-0.9273 8.83433,-10.71 c 19.16174,-23.23011 23.06975,-30.31833 20.4622,-37.11353 -2.05509,-5.35545 -17.85947,-8.12523 -36.49553,-6.39599 l -9.97177,0.9253 -5.9006,6.48712 c -3.24534,3.56791 -14.72708,17.21385 -25.51499,30.32429 l -19.614383,23.83717 v 14.31829 c 0,15.12553 1.577081,21.62683 5.866943,24.18562 3.44425,2.05442 177.44747,1.31282 182.15278,-0.77633 z m -19.4948,-166.09294 25.51499,-30.76753 v -14.43367 c 0,-7.93852 -0.53183,-15.8325 -1.18185,-17.54219 -2.43573,-6.40646 -3.89513,-6.50553 -95.83811,-6.50553 -76.83908,0 -85.49887,0.20364 -89.69992,2.10936 -5.738407,2.6031 -6.560959,5.94624 -5.845531,23.75832 0.622892,15.50821 1.839611,17.18136 13.745851,18.90233 4.4493,0.64312 30.91138,1.1807 58.80461,1.19464 27.89324,0.0139 50.71498,0.31968 50.71498,0.67943 0,0.35975 -5.73901,7.54703 -12.75336,15.97172 -15.09101,18.12532 -17.47566,21.79715 -17.48191,26.91834 -0.0108,8.85192 4.31531,10.3116 30.86527,10.41417 l 17.63999,0.0681 z"
       id="path2" />
  </g>
</svg>
